<svg width="111" height="126" viewBox="0 0 111 126" fill="none" xmlns="http://www.w3.org/2000/svg">
<path d="M69.9839 67.0768H37.1118C36.9638 67.0768 36.9638 67.0768 36.9638 67.2249C35.0388 67.0768 33.262 66.9287 31.6332 66.6326C29.8563 66.1884 28.0794 65.5961 26.4506 64.8557C24.8218 64.1153 23.193 63.0788 21.7123 62.0423C20.2316 61.0058 18.8989 59.6732 17.5663 58.3405C16.8259 57.4521 16.2336 56.5637 15.4933 55.5272C14.901 54.6387 14.3087 53.6022 13.8645 52.5657L13.5683 51.8253C14.1606 52.2696 14.6048 52.5657 15.1971 52.8619C16.0856 53.3061 16.974 53.7503 17.8624 54.1945C20.9719 55.5272 24.0815 56.5637 27.3391 57.304C30.5967 58.0444 33.8542 58.3405 37.2599 58.3405C37.2599 58.3405 37.2599 58.3405 37.408 58.3405C47.625 58.3405 58.7304 58.7847 68.9474 58.1925C70.132 58.1925 71.1685 57.8963 72.205 57.6002C73.2415 57.304 74.278 57.0079 75.3145 56.5637C76.203 55.9714 77.2395 55.5272 78.1279 54.7868C79.0163 54.1945 79.9048 53.4541 80.7932 52.7138L81.3855 51.9734C82.2739 51.085 83.0143 50.0485 83.6066 49.012C84.1989 48.1235 84.7912 46.939 85.2354 45.9024C85.6796 44.7179 85.9758 43.6814 86.1238 42.4968C86.42 41.3122 86.42 40.1276 86.42 38.943C86.42 37.6104 86.42 36.2777 86.1238 35.0932C85.8277 33.9086 85.5315 32.5759 84.9392 31.3913C84.495 30.2068 83.9027 29.1703 83.1624 28.1338C82.5701 27.0972 81.6816 26.0607 80.7932 25.1723L80.349 24.58L79.9048 24.2839L79.6086 23.9877L79.0163 23.3954C77.2395 21.9147 75.3145 20.8782 73.2415 20.1378C71.3166 19.3975 69.0955 19.1013 66.8744 19.1013H37.2599C35.335 19.1013 33.41 18.8052 31.6332 18.5091C29.8563 18.0648 28.0794 17.4725 26.4506 16.7322C24.8218 15.9918 23.193 15.1034 21.7123 13.9188C20.3797 13.0304 19.1951 11.8458 18.0105 10.6612C35.483 10.6612 53.1037 10.6612 70.5762 10.6612L71.1685 10.8093H71.9089C73.2415 10.9574 74.5742 11.2535 75.9068 11.5496C77.2395 11.8458 78.5721 12.29 79.7567 12.8823C81.5336 13.6227 83.1624 14.5111 84.6431 15.5476C86.1238 16.5841 87.6045 17.7687 88.9372 19.1013C89.5295 19.8417 90.2699 20.434 90.8621 21.1744C91.4544 21.9147 91.8987 22.507 92.3429 23.2474C92.9352 23.9877 93.3794 24.7281 93.8236 25.6165C94.2678 26.3569 94.712 27.2453 95.0082 28.1338C95.4524 29.0222 95.7485 29.9106 96.0447 30.651C96.3408 31.5394 96.4889 32.4279 96.785 33.3163C96.9331 34.2047 97.0812 35.0932 97.0812 35.9816C97.2293 36.87 97.2293 37.9065 97.2293 38.943C97.2293 40.4238 97.2293 41.9045 96.9331 43.2371C96.785 44.5698 96.4889 45.9024 96.0447 47.2351C95.6005 48.5677 95.1562 49.9004 94.4159 51.2331C93.8236 52.4176 93.0832 53.7503 92.1948 55.0829L87.9007 61.5981C87.7526 61.7462 87.7526 61.8943 87.9007 62.0423L93.0832 67.8172C94.4159 69.1498 95.4524 70.6305 96.3408 72.1113C97.2293 73.4439 97.9696 74.9246 98.5619 76.5534C99.1542 78.0342 99.5984 79.5149 99.8946 81.2917C100.191 82.9205 100.339 84.6974 100.339 86.6224C100.339 87.5108 100.339 88.5473 100.191 89.4357C100.043 90.4722 100.043 91.3607 99.7465 92.101C99.5984 92.9895 99.4503 93.8779 99.1542 94.7663C98.8581 95.6548 98.5619 96.5432 98.1177 97.2836C97.8215 98.172 97.3773 99.0604 96.9331 99.9489C96.4889 100.689 95.8966 101.578 95.4524 102.17C95.0082 102.91 94.4159 103.651 93.8236 104.243C93.3794 104.983 92.639 105.724 91.8987 106.464C91.3064 107.056 90.566 107.797 89.8256 108.389C89.2333 108.981 88.493 109.426 87.7526 109.87C87.0123 110.462 86.2719 110.906 85.5315 111.35C84.6431 111.795 83.7547 112.239 82.8662 112.535C81.9778 112.979 81.2374 113.275 80.349 113.572C79.4606 113.868 78.5721 114.016 77.6837 114.312C76.9433 114.46 75.9068 114.608 75.0184 114.608C74.13 114.756 73.0934 114.756 72.0569 114.756H32.2255C29.7082 114.312 27.3391 113.423 25.266 112.239C22.8969 111.202 20.9719 109.722 19.047 107.945C17.8624 106.612 16.6778 105.279 15.6413 103.799C14.7529 102.614 14.1606 101.282 13.4202 99.9489C16.8259 101.874 20.5277 103.503 24.5257 104.687C28.5236 105.724 32.8177 106.464 37.2599 106.464H69.9839C71.0204 106.464 72.205 106.316 73.3896 106.02C73.9819 106.02 74.5742 105.872 75.1665 105.724C75.7588 105.576 76.351 105.279 76.9433 105.131C77.5356 104.835 78.1279 104.539 78.8683 104.243C79.4606 103.947 80.0529 103.503 80.6451 103.206C81.2374 102.762 81.8297 102.318 82.2739 101.874C82.8662 101.43 83.3104 101.133 83.7547 100.689C84.6431 99.6527 85.5315 98.6162 86.2719 97.5797C87.0123 96.5432 87.6045 95.3586 88.0488 94.174C88.493 92.9895 88.9372 91.6568 89.2333 90.4722C89.3814 89.1396 89.5295 87.8069 89.5295 86.6224C89.5295 85.2897 89.3814 83.9571 89.2333 82.6244C88.9372 81.4398 88.493 80.1072 88.0488 78.9226C87.4565 77.8861 86.8642 76.7015 86.1238 75.665C85.3835 74.6285 84.6431 73.592 83.6066 72.7036C82.8662 72.1113 82.2739 71.3709 81.5336 70.9267C80.7932 70.3344 79.9048 69.8902 79.1644 69.446C78.4241 69.0017 77.5356 68.5575 76.6472 68.2614C75.7588 67.9652 74.8703 67.8172 73.9819 67.521C73.9819 67.521 73.9819 67.521 73.8338 67.521C73.6857 67.521 73.3896 67.3729 73.0934 67.3729L71.9089 67.2249H70.7243C70.4281 67.0768 70.132 67.0768 69.9839 67.0768ZM37.1118 77.8861H37.408H69.9839C70.2801 77.8861 70.5762 77.8861 70.8724 77.8861C71.1685 77.8861 71.4647 78.0342 71.7608 78.0342C72.6492 78.1822 73.3896 78.4784 74.13 78.9226C74.8703 79.2187 75.4626 79.811 76.203 80.4033C77.0914 81.2917 77.6837 82.1802 78.1279 83.2167C78.5721 84.2532 78.8683 85.2897 78.8683 86.6224C78.8683 87.8069 78.5721 88.9915 78.1279 90.028C77.6837 91.2126 77.0914 92.101 76.203 92.9895C75.7588 93.5818 75.1665 93.8779 74.7222 94.3221C74.13 94.6183 73.5377 94.9144 73.0934 95.0625C72.5012 95.3586 72.0569 95.5067 71.6127 95.5067C71.0204 95.6548 70.5762 95.6548 69.9839 95.6548H37.2599C30.0044 95.6548 23.193 93.5818 17.5663 89.88C11.7915 86.0301 7.05313 80.6995 4.23976 74.1843C3.20325 71.9632 2.46289 69.594 1.8706 67.2249C1.42638 64.8557 1.13024 62.3385 1.13024 59.9693V59.8213C1.13024 59.5251 0.982164 59.377 0.834091 59.377C0.537946 59.377 0.389874 59.5251 0.389874 59.8213C0.389874 62.3385 0.389874 65.448 0.241801 68.7056C-0.0543436 77.738 -0.350488 88.5473 1.13024 96.099C2.61096 103.651 6.31277 110.462 11.6434 115.645C16.974 120.679 23.7853 124.233 31.4851 125.565H72.0569C74.7222 125.565 77.3876 125.269 79.9048 124.677C82.422 124.233 84.7912 123.492 87.1603 122.456C89.5295 121.419 91.7506 120.087 93.8236 118.754C95.8966 117.273 97.8215 115.793 99.5984 114.016C101.375 112.239 102.856 110.314 104.337 108.241C105.669 106.168 107.002 103.947 107.89 101.578C108.927 99.2085 109.815 96.8394 110.26 94.3221C110.852 91.8049 111 89.1396 111 86.6224C111 81.5879 110.26 76.9977 108.631 72.7036C107.002 68.4095 104.485 64.4115 101.227 60.8578C103.448 57.4521 105.225 54.0464 106.262 50.4927C107.446 46.7909 108.039 42.941 108.039 38.943C108.039 36.2777 107.742 33.6124 107.15 31.2433C106.706 28.726 105.966 26.2088 104.929 23.8397C103.893 21.4705 102.708 19.2494 101.227 17.1764C99.8946 15.1034 98.2658 13.1784 96.4889 11.4016C92.9352 7.99591 88.7891 5.18253 84.0508 3.10952C80.4971 1.48072 76.7953 0.59229 72.9454 0.148072C72.3531 0.148072 71.6127 0 71.0204 0C70.2801 0 69.6878 0 69.0955 0H1.42638C1.27831 0 1.13024 0.148072 1.13024 0.296145C1.8706 3.55374 2.90711 6.51519 4.23976 9.32856C5.72048 12.1419 7.49735 14.8072 9.57037 17.3245C12.976 21.1744 17.2701 24.2839 22.0085 26.505C26.7468 28.578 31.7812 29.7626 37.2599 29.7626H66.8744C68.9474 29.7626 70.5762 30.3548 72.205 31.6875L72.6492 32.1317L73.0934 32.5759C73.9819 33.4644 74.7222 34.5009 75.1665 35.5374C75.4626 36.5739 75.7588 37.7585 75.7588 38.943C75.7588 39.9795 75.6107 41.1641 75.1665 42.0526C74.8703 43.0891 74.278 43.9775 73.5377 44.7179L73.2415 45.014C72.5012 45.7544 71.6127 46.3467 70.7243 46.7909C69.8359 47.2351 68.7993 47.5312 67.7628 47.6793L37.2599 47.5312C31.9293 47.5312 26.8948 46.4947 22.3046 44.4217C17.5663 42.2006 13.4202 39.0911 10.0146 35.2412C8.83 33.9086 7.7935 32.4279 6.75699 30.9471C5.86855 29.4664 4.98012 27.8376 4.23976 26.2088C3.20325 23.8397 2.46289 21.6186 1.8706 19.1013C1.42638 16.7322 1.13024 14.363 1.13024 11.8458V11.6977C1.13024 11.5496 0.982164 11.4016 0.834091 11.4016C0.537946 11.4016 0.389874 11.5496 0.389874 11.6977C0.389874 14.363 0.389874 17.3245 0.241801 20.5821C-0.0543436 29.7626 -0.350488 40.4238 1.13024 47.9755C1.72253 51.2331 2.75903 54.3426 4.23976 57.1559C5.57241 60.1174 7.49735 62.9308 9.57037 65.2999C12.976 69.2979 17.2701 72.4074 22.0085 74.6285C26.5987 76.7015 31.6332 77.8861 37.1118 77.8861Z" fill="#6666FF"/>
</svg>
